<svg xmlns="http://www.w3.org/2000/svg" xmlns:xlink="http://www.w3.org/1999/xlink" width="1920" zoomAndPan="magnify" viewBox="0 0 1440 809.999993" height="1080" preserveAspectRatio="xMidYMid meet" version="1.0"><defs><g/></defs><path stroke-linecap="butt" transform="matrix(2.997837, 0, 0, 2.997837, -259.471387, 312.067065)" fill="none" stroke-linejoin="miter" d="M 101.907699 42.056149 C 101.907699 50.589646 109.858745 54.724138 117.473611 54.724138 C 132.509193 54.724138 136.272323 39.228589 136.272323 28.593316 L 136.272323 -18.370237 L 105.458436 -18.370237 L 105.458436 -1.584696 L 105.670829 -1.584696 C 109.858745 -9.765074 118.039123 -15.684707 129.117424 -15.684707 L 132.880554 -15.684707 L 132.810191 -1.655059 L 132.810191 13.981216 C 132.810191 28.238894 127.598099 43.575474 114.717717 43.575474 C 109.363596 43.575474 104.292231 39.017499 104.946348 35.907184 L 104.733955 35.907184 C 103.35666 36.844057 101.907699 38.945833 101.907699 42.056149 Z M 139.751394 17.744347 C 139.751394 39.95307 150.317607 54.724138 166.095912 54.724138 C 181.943277 54.724138 192.509491 39.95307 192.509491 17.744347 C 192.509491 -4.32365 181.943277 -19.094718 166.095912 -19.094718 C 150.317607 -19.094718 139.751394 -4.32365 139.751394 17.744347 Z M 159.787978 -13.59987 C 170.72425 -13.59987 180.423953 -1.002244 183.957751 17.885073 C 187.509791 36.773694 182.739424 49.37132 171.872213 49.37132 C 160.954184 49.37132 151.253178 36.773694 147.70244 17.885073 C 144.168642 -1.072608 148.939009 -13.59987 159.787978 -13.59987 Z M 214.792486 53.999657 L 214.792486 53.788568 C 201.841741 37.285782 199.368603 13.981216 199.368603 -1.655059 C 203.131734 4.56427 209.138669 8.839488 213.927279 14.193609 C 221.294571 22.514714 227.231143 31.631965 227.231143 41.632667 C 227.231143 48.646839 225.499426 53.999657 225.499426 53.999657 L 240.976732 53.999657 C 244.599136 34.105103 227.373173 22.302321 213.131132 9.634332 C 215.870086 10.429176 219.49249 10.500842 223.043227 10.500842 C 233.097352 10.500842 240.111525 3.627396 240.111525 -5.489855 C 240.111525 -14.607107 232.443235 -18.370237 223.538376 -18.370237 L 195.975532 -18.370237 L 195.975532 53.999657 Z M 199.368603 -15.773313 L 213.131132 -15.773313 C 224.262857 -15.773313 229.262556 -8.881624 229.262556 -2.521569 C 229.262556 3.415003 225.852545 8.115007 219.845609 8.115007 C 208.414189 8.115007 199.368603 -4.695011 199.368603 -8.458142 Z M 244.962679 53.999657 L 271.659014 53.999657 C 284.327003 53.999657 294.168735 35.624428 294.168735 17.81471 C 294.168735 -0.277764 285.12315 -18.370237 260.15723 -18.370237 L 244.962679 -18.370237 Z M 248.354448 -15.773313 L 258.266544 -15.773313 C 276.660016 -15.773313 284.115913 3.132247 284.115913 20.925026 C 284.115913 37.498175 278.107674 51.402733 268.550001 51.402733 C 251.623733 51.402733 248.655446 13.114706 248.354448 -1.797088 Z M 312.975265 53.999657 L 312.975265 53.788568 C 302.551082 43.151991 305.236612 18.326798 308.204898 -1.285 C 316.085581 5.518082 329.195295 8.556732 329.195295 24.335037 C 329.195295 31.066453 324.636018 35.907184 319.124231 38.505411 L 325.92601 46.985485 C 331.932946 44.741679 337.357431 37.568538 337.357431 30.040974 C 337.446036 24.263371 334.760506 18.980916 331.280132 14.05158 C 335.484987 6.170897 345.467446 3.415003 351.546048 -2.238813 C 354.514334 17.019866 357.852679 42.355844 346.633651 53.788568 L 346.633651 53.999657 L 364.143674 53.999657 L 354.089549 -5.048131 C 355.608873 -7.291936 356.545747 -9.977467 356.545747 -13.440902 C 356.545747 -15.259922 356.104022 -17.204032 355.53851 -18.370237 L 342.004011 -18.370237 L 342.004011 -17.858149 C 343.22364 -16.126432 343.807394 -14.252685 343.807394 -12.221272 C 343.877758 -4.32365 335.926712 3.202611 329.478051 11.665745 C 323.116693 3.202611 315.148708 -4.32365 315.148708 -12.221272 C 315.148708 -14.252685 315.731159 -16.126432 316.950788 -17.858149 L 316.950788 -18.370237 L 303.416289 -18.370237 C 302.850777 -17.204032 302.409052 -15.259922 302.409052 -13.440902 C 302.409052 -9.535742 303.575258 -6.637819 305.449005 -4.253287 L 295.465243 53.999657 Z M 365.437575 16.365748 C 365.437575 35.395096 377.009722 54.724138 395.314589 54.724138 C 407.699822 54.724138 414.856024 46.756153 411.392589 38.505411 L 411.181499 38.505411 C 408.849088 41.985786 404.590809 44.600953 399.166325 44.600953 C 385.472856 44.600953 372.451748 29.317797 371.93966 8.416005 L 376.356908 8.416005 C 386.568699 8.416005 393.88387 12.09053 396.992882 17.090229 L 397.205275 17.090229 L 401.834916 5.729172 L 371.93966 5.729172 C 372.451748 -7.00918 379.253528 -15.684707 383.530049 -15.684707 C 391.640064 -15.684707 402.700123 -13.298872 410.226383 -1.584696 L 410.457018 -1.584696 L 410.457018 -18.370237 L 379.907645 -18.370237 C 370.065913 -10.984703 365.437575 2.549796 365.437575 16.365748 Z M 415.004569 53.999657 L 454.510921 53.999657 L 454.510921 37.215419 L 454.298529 37.215419 C 450.093674 45.395797 442.938775 51.314127 431.860473 51.314127 L 418.396337 51.314127 L 418.396337 38.87547 C 418.396337 5.359114 423.467703 -6.497092 432.725681 -18.157845 L 432.725681 -18.370237 L 415.004569 -18.370237 Z M 457.261603 53.999657 L 496.767956 53.999657 L 496.767956 37.215419 L 496.555563 37.215419 C 492.350708 45.395797 485.195809 51.314127 474.117508 51.314127 L 460.653372 51.314127 L 460.653372 38.87547 C 460.653372 5.359114 465.724737 -6.497092 474.982715 -18.157845 L 474.982715 -18.370237 L 457.261603 -18.370237 Z M 498.069676 17.744347 C 498.069676 39.95307 508.635889 54.724138 524.412891 54.724138 C 540.261559 54.724138 550.827772 39.95307 550.827772 17.744347 C 550.827772 -4.32365 540.261559 -19.094718 524.412891 -19.094718 C 508.635889 -19.094718 498.069676 -4.32365 498.069676 17.744347 Z M 518.10626 -13.59987 C 529.042531 -13.59987 538.742234 -1.002244 542.276032 17.885073 C 545.828073 36.773694 541.057706 49.37132 530.190494 49.37132 C 519.272465 49.37132 509.571459 36.773694 506.020722 17.885073 C 502.486923 -1.072608 507.25729 -13.59987 518.10626 -13.59987 Z M 518.10626 -13.59987 " stroke="#545454" stroke-width="8.05154" stroke-opacity="1" stroke-miterlimit="4"/><g fill="#000000" fill-opacity="1"><g transform="translate(39.515981, 473.950246)"><g><path d="M 6.507812 -35.796875 C 6.507812 -10.195312 30.375 2.167969 53.152344 2.167969 C 98.28125 2.167969 109.5625 -44.257812 109.5625 -76.152344 L 109.5625 -216.953125 L 17.140625 -216.953125 L 17.140625 -166.621094 L 17.789062 -166.621094 C 30.375 -191.136719 54.890625 -208.925781 88.082031 -208.925781 L 99.363281 -208.925781 L 99.148438 -166.835938 L 99.148438 -119.976562 C 99.148438 -77.234375 83.527344 -31.242188 44.910156 -31.242188 C 28.855469 -31.242188 13.667969 -44.910156 15.621094 -54.238281 L 14.96875 -54.238281 C 10.847656 -51.417969 6.507812 -45.125 6.507812 -35.796875 Z M 6.507812 -35.796875 "/></g></g></g><g fill="#000000" fill-opacity="1"><g transform="translate(150.794464, 473.950246)"><g><path d="M 8.679688 -108.695312 C 8.679688 -42.089844 40.351562 2.167969 87.648438 2.167969 C 135.160156 2.167969 166.835938 -42.089844 166.835938 -108.695312 C 166.835938 -174.863281 135.160156 -219.121094 87.648438 -219.121094 C 40.351562 -219.121094 8.679688 -174.863281 8.679688 -108.695312 Z M 68.773438 -202.632812 C 101.535156 -202.632812 130.605469 -164.882812 141.238281 -108.261719 C 151.867188 -51.636719 137.546875 -13.886719 105.003906 -13.886719 C 72.246094 -13.886719 43.171875 -51.636719 32.542969 -108.261719 C 21.914062 -165.101562 36.230469 -202.632812 68.773438 -202.632812 Z M 68.773438 -202.632812 "/></g></g></g><g fill="#000000" fill-opacity="1"><g transform="translate(315.001808, 473.950246)"><g><path d="M 69.425781 0 L 69.425781 -0.652344 C 30.589844 -50.117188 23.214844 -119.976562 23.214844 -166.835938 C 34.496094 -148.179688 52.503906 -135.378906 66.820312 -119.324219 C 88.949219 -94.375 106.742188 -67.039062 106.742188 -37.097656 C 106.742188 -16.054688 101.535156 0 101.535156 0 L 147.960938 0 C 158.808594 -59.664062 107.175781 -95.027344 64.433594 -132.992188 C 72.679688 -130.605469 83.527344 -130.390625 94.15625 -130.390625 C 124.3125 -130.390625 145.359375 -151 145.359375 -178.335938 C 145.359375 -205.671875 122.363281 -216.953125 95.675781 -216.953125 L 13.015625 -216.953125 L 13.015625 0 Z M 23.214844 -209.144531 L 64.433594 -209.144531 C 97.847656 -209.144531 112.816406 -188.53125 112.816406 -169.441406 C 112.816406 -151.652344 102.617188 -137.546875 84.613281 -137.546875 C 50.332031 -137.546875 23.214844 -175.949219 23.214844 -187.230469 Z M 23.214844 -209.144531 "/></g></g></g><g fill="#000000" fill-opacity="1"><g transform="translate(461.855436, 473.950246)"><g><path d="M 13.015625 0 L 93.074219 0 C 131.039062 0 160.546875 -55.105469 160.546875 -108.476562 C 160.546875 -162.714844 133.425781 -216.953125 58.578125 -216.953125 L 13.015625 -216.953125 Z M 23.214844 -209.144531 L 52.9375 -209.144531 C 108.042969 -209.144531 130.390625 -152.519531 130.390625 -99.148438 C 130.390625 -49.464844 112.382812 -7.808594 83.742188 -7.808594 C 32.976562 -7.808594 24.082031 -122.578125 23.214844 -167.269531 Z M 23.214844 -209.144531 "/></g></g></g><g fill="#000000" fill-opacity="1"><g transform="translate(619.772074, 473.950246)"><g><path d="M 59.011719 0 L 59.011719 -0.652344 C 27.769531 -32.542969 35.796875 -106.957031 44.691406 -165.753906 C 68.339844 -145.359375 107.609375 -136.246094 107.609375 -88.949219 C 107.609375 -68.773438 93.941406 -54.238281 77.453125 -46.429688 L 97.847656 -21.042969 C 115.851562 -27.769531 132.125 -49.25 132.125 -71.8125 C 132.339844 -89.167969 124.3125 -105.003906 113.902344 -119.757812 C 126.484375 -143.40625 156.421875 -151.652344 174.648438 -168.574219 C 183.542969 -110.863281 193.523438 -34.929688 159.894531 -0.652344 L 159.894531 0 L 212.398438 0 L 182.242188 -177.035156 C 186.796875 -183.757812 189.617188 -191.785156 189.617188 -202.199219 C 189.617188 -207.625 188.316406 -213.480469 186.578125 -216.953125 L 146.007812 -216.953125 L 146.007812 -215.433594 C 149.699219 -210.226562 151.433594 -204.585938 151.433594 -198.511719 C 151.652344 -174.863281 127.785156 -152.300781 108.476562 -126.917969 C 89.386719 -152.300781 65.519531 -174.863281 65.519531 -198.511719 C 65.519531 -204.585938 67.253906 -210.226562 70.945312 -215.433594 L 70.945312 -216.953125 L 30.375 -216.953125 C 28.636719 -213.480469 27.335938 -207.625 27.335938 -202.199219 C 27.335938 -190.484375 30.808594 -181.808594 36.449219 -174.648438 L 6.507812 0 Z M 59.011719 0 "/></g></g></g><g fill="#000000" fill-opacity="1"><g transform="translate(827.363712, 473.950246)"><g><path d="M 8.679688 -112.816406 C 8.679688 -55.757812 43.390625 2.167969 98.28125 2.167969 C 135.378906 2.167969 156.855469 -21.695312 146.445312 -46.429688 L 145.792969 -46.429688 C 138.851562 -36.015625 126.050781 -28.203125 109.777344 -28.203125 C 68.773438 -28.203125 29.722656 -73.980469 28.203125 -136.679688 L 41.4375 -136.679688 C 72.027344 -136.679688 93.941406 -125.617188 103.269531 -110.644531 L 103.921875 -110.644531 L 117.804688 -144.707031 L 28.203125 -144.707031 C 29.722656 -182.890625 50.117188 -208.925781 62.917969 -208.925781 C 87.214844 -208.925781 120.410156 -201.765625 142.972656 -166.621094 L 143.625 -166.621094 L 143.625 -216.953125 L 52.070312 -216.953125 C 22.5625 -194.824219 8.679688 -154.253906 8.679688 -112.816406 Z M 8.679688 -112.816406 "/></g></g></g><g fill="#000000" fill-opacity="1"><g transform="translate(971.614292, 473.950246)"><g><path d="M 13.015625 0 L 131.472656 0 L 131.472656 -50.332031 L 130.824219 -50.332031 C 118.238281 -25.816406 96.761719 -8.027344 63.566406 -8.027344 L 23.214844 -8.027344 L 23.214844 -45.34375 C 23.214844 -145.792969 38.402344 -181.375 66.171875 -216.300781 L 66.171875 -216.953125 L 13.015625 -216.953125 Z M 13.015625 0 "/></g></g></g><g fill="#000000" fill-opacity="1"><g transform="translate(1098.294209, 473.950246)"><g><path d="M 13.015625 0 L 131.472656 0 L 131.472656 -50.332031 L 130.824219 -50.332031 C 118.238281 -25.816406 96.761719 -8.027344 63.566406 -8.027344 L 23.214844 -8.027344 L 23.214844 -45.34375 C 23.214844 -145.792969 38.402344 -181.375 66.171875 -216.300781 L 66.171875 -216.953125 L 13.015625 -216.953125 Z M 13.015625 0 "/></g></g></g><g fill="#000000" fill-opacity="1"><g transform="translate(1224.974126, 473.950246)"><g><path d="M 8.679688 -108.695312 C 8.679688 -42.089844 40.351562 2.167969 87.648438 2.167969 C 135.160156 2.167969 166.835938 -42.089844 166.835938 -108.695312 C 166.835938 -174.863281 135.160156 -219.121094 87.648438 -219.121094 C 40.351562 -219.121094 8.679688 -174.863281 8.679688 -108.695312 Z M 68.773438 -202.632812 C 101.535156 -202.632812 130.605469 -164.882812 141.238281 -108.261719 C 151.867188 -51.636719 137.546875 -13.886719 105.003906 -13.886719 C 72.246094 -13.886719 43.171875 -51.636719 32.542969 -108.261719 C 21.914062 -165.101562 36.230469 -202.632812 68.773438 -202.632812 Z M 68.773438 -202.632812 "/></g></g></g></svg>